<?xml version="1.0" standalone="no"?>
<!DOCTYPE svg PUBLIC "-//W3C//DTD SVG 20010904//EN"
 "http://www.w3.org/TR/2001/REC-SVG-20010904/DTD/svg10.dtd">
<svg version="1.0" xmlns="http://www.w3.org/2000/svg"
 width="512.000000pt" height="512.000000pt" viewBox="0 0 512.000000 512.000000"
 preserveAspectRatio="xMidYMid meet">

<g transform="translate(0.000000,512.000000) scale(0.100000,-0.100000)"
fill="#000000" stroke="none">
<path d="M1005 4946 c-37 -16 -70 -52 -84 -89 -8 -20 -11 -726 -11 -2338 l0
-2310 25 -24 c15 -16 36 -25 55 -25 36 0 -15 -51 879 890 347 366 634 665 639
665 4 0 310 -319 680 -710 820 -864 801 -845 838 -845 33 1 56 15 72 47 9 16
12 592 12 2321 l0 2299 -23 44 c-16 31 -36 51 -67 67 l-44 22 -1471 0 c-1203
-1 -1475 -3 -1500 -14z m2945 -2322 c0 -1197 -4 -2174 -8 -2172 -5 1 -316 326
-691 720 -374 395 -692 725 -706 734 -16 10 -34 14 -53 9 -21 -4 -204 -190
-721 -735 -382 -402 -695 -730 -697 -730 -2 0 -4 979 -4 2175 l0 2175 1440 0
1440 0 0 -2176z"/>
</g>
</svg>